<svg width="15" height="16" viewBox="0 0 15 16" fill="none" xmlns="http://www.w3.org/2000/svg">
<path d="M6.26953 2.83789C5.97656 3.13086 6.00586 3.57031 6.26953 3.86328L9.81445 7.20312H1.40625C0.996094 7.20312 0.703125 7.52539 0.703125 7.90625V8.84375C0.703125 9.25391 0.996094 9.54688 1.40625 9.54688H9.81445L6.26953 12.916C6.00586 13.209 6.00586 13.6484 6.26953 13.9414L6.91406 14.5859C7.20703 14.8496 7.64648 14.8496 7.91016 14.5859L13.623 8.87305C13.8867 8.60938 13.8867 8.16992 13.623 7.87695L7.91016 2.19336C7.64648 1.92969 7.20703 1.92969 6.91406 2.19336L6.26953 2.83789Z" fill="white"/>
</svg>
