<svg width="15" height="16" viewBox="0 0 15 16" fill="none" xmlns="http://www.w3.org/2000/svg">
<path d="M7.9668 13.9414C8.25977 13.6484 8.23047 13.209 7.9668 12.916L4.42188 9.54688H12.8594C13.2402 9.54688 13.5625 9.25391 13.5625 8.84375V7.90625C13.5625 7.52539 13.2402 7.20312 12.8594 7.20312H4.42188L7.9668 3.86328C8.23047 3.57031 8.25977 3.13086 7.9668 2.83789L7.32227 2.19336C7.05859 1.92969 6.58984 1.92969 6.32617 2.19336L0.642578 7.90625C0.349609 8.16992 0.349609 8.60938 0.642578 8.87305L6.32617 14.5859C6.58984 14.8496 7.0293 14.8496 7.32227 14.5859L7.9668 13.9414Z" fill="#646464"/>
</svg>
