<svg width="14" height="15" viewBox="0 0 14 15" fill="none" xmlns="http://www.w3.org/2000/svg">
<g clip-path="url(#clip0_122_2283)">
<path fill-rule="evenodd" clip-rule="evenodd" d="M1.4403 4.79186C1.48094 4.75112 1.52922 4.71879 1.58237 4.69674C1.63552 4.67468 1.6925 4.66333 1.75005 4.66333C1.8076 4.66333 1.86458 4.67468 1.91773 4.69674C1.97088 4.71879 2.01916 4.75112 2.0598 4.79186L7.00005 9.73299L11.9403 4.79186C11.981 4.75118 12.0293 4.71892 12.0824 4.6969C12.1356 4.67489 12.1925 4.66356 12.25 4.66356C12.3076 4.66356 12.3645 4.67489 12.4177 4.6969C12.4708 4.71892 12.5191 4.75118 12.5598 4.79186C12.6005 4.83254 12.6327 4.88083 12.6548 4.93398C12.6768 4.98712 12.6881 5.04409 12.6881 5.10161C12.6881 5.15914 12.6768 5.2161 12.6548 5.26925C12.6327 5.32239 12.6005 5.37069 12.5598 5.41136L7.3098 10.6614C7.26916 10.7021 7.22088 10.7344 7.16773 10.7565C7.11458 10.7785 7.0576 10.7899 7.00005 10.7899C6.9425 10.7899 6.88552 10.7785 6.83237 10.7565C6.77922 10.7344 6.73094 10.7021 6.6903 10.6614L1.4403 5.41136C1.39956 5.37072 1.36723 5.32244 1.34518 5.26929C1.32312 5.21614 1.31177 5.15916 1.31177 5.10161C1.31177 5.04407 1.32312 4.98708 1.34518 4.93393C1.36723 4.88078 1.39956 4.8325 1.4403 4.79186Z" fill="black" fill-opacity="0.87"/>
</g>
<defs>
<clipPath id="clip0_122_2283">
<rect width="14" height="14" fill="white" transform="translate(0 0.726562)"/>
</clipPath>
</defs>
</svg>
