<svg width="20" height="21" viewBox="0 0 20 21" fill="none" xmlns="http://www.w3.org/2000/svg">
<g clip-path="url(#clip0_122_2223)">
<mask id="mask0_122_2223" style="mask-type:luminance" maskUnits="userSpaceOnUse" x="0" y="0" width="20" height="21">
<path d="M20 0.164062H0V20.1649H20V0.164062Z" fill="white"/>
</mask>
<g mask="url(#mask0_122_2223)">
<path d="M14.0293 6.51291C13.7194 6.20325 13.218 6.2035 12.9086 6.51291L10.0004 9.42112L7.09321 6.51291C6.78355 6.2035 6.28219 6.20325 5.97253 6.51291C5.66313 6.82231 5.66313 7.32392 5.97253 7.63358L8.87998 10.5418L5.97253 13.4487C5.66313 13.7584 5.66313 14.2597 5.97253 14.5694C6.12711 14.724 6.32999 14.8012 6.53287 14.8012C6.7355 14.8012 6.93838 14.724 7.09321 14.5694L10.0004 11.6622L12.9066 14.5691C13.0611 14.724 13.264 14.8012 13.4669 14.8012C13.6698 14.8012 13.8724 14.724 14.027 14.5694C14.3367 14.26 14.3367 13.7584 14.0272 13.449L11.1208 10.5418L14.0293 7.63333C14.3387 7.32418 14.3387 6.82231 14.0293 6.51291Z" fill="#F95F62"/>
<path d="M10.0017 0.164062C4.48676 0.164062 0 4.65082 0 10.1658C0 15.6794 4.48676 20.1649 10.0017 20.1649C15.5148 20.1649 20 15.6791 20 10.1655C20 4.65082 15.5148 0.164062 10.0017 0.164062ZM10.0017 18.5805C5.36057 18.5805 1.58491 14.8056 1.58491 10.1658C1.58491 5.52463 5.36083 1.74897 10.0017 1.74897C14.6412 1.74897 18.4153 5.52489 18.4153 10.1658C18.4153 14.8056 14.641 18.5805 10.0017 18.5805Z" fill="#F95F62"/>
</g>
</g>
<defs>
<clipPath id="clip0_122_2223">
<rect width="20" height="20" fill="white" transform="translate(0 0.164062)"/>
</clipPath>
</defs>
</svg>
