<svg width="34" height="35" viewBox="0 0 34 35" fill="none" xmlns="http://www.w3.org/2000/svg">
<g clip-path="url(#clip0_122_2265)">
<path fill-rule="evenodd" clip-rule="evenodd" d="M17 2.85156C8.78475 2.85156 2.125 9.51131 2.125 17.7266C2.125 25.9419 8.78475 32.6016 17 32.6016C25.2153 32.6016 31.875 25.9419 31.875 17.7266C31.875 9.51131 25.2153 2.85156 17 2.85156Z" fill="#E92B2B"/>
<path fill-rule="evenodd" clip-rule="evenodd" d="M29.8852 25.1641H4.11523C4.92495 26.5639 5.95621 27.8194 7.16104 28.8828H26.8394C28.0442 27.8194 29.0755 26.5639 29.8852 25.1641Z" fill="#FBFBFB"/>
<path fill-rule="evenodd" clip-rule="evenodd" d="M31.875 17.7266H2.125C2.125 19.0107 2.28771 20.2567 2.59363 21.4454H31.4064C31.7123 20.2567 31.875 19.0107 31.875 17.7266Z" fill="#FBFBFB"/>
<path fill-rule="evenodd" clip-rule="evenodd" d="M29.8851 10.2891H4.11513C3.44933 11.4401 2.93332 12.6886 2.59375 14.0078H31.4065C31.0669 12.6886 30.5509 11.4401 29.8851 10.2891Z" fill="#FBFBFB"/>
<path fill-rule="evenodd" clip-rule="evenodd" d="M26.8385 6.57031H7.16016C9.78241 4.25589 13.2269 2.85156 16.9994 2.85156C20.7718 2.85156 24.2163 4.25589 26.8385 6.57031Z" fill="#FBFBFB"/>
<path fill-rule="evenodd" clip-rule="evenodd" d="M15.5129 2.92578V17.7274H2.125C2.125 10.014 7.99591 3.6719 15.5129 2.92578Z" fill="#2A2FAF"/>
<path fill-rule="evenodd" clip-rule="evenodd" d="M4.3933 9.82812H5.02828L4.15395 10.4634L4.48792 11.4912L3.75195 10.9565C3.94965 10.5703 4.16374 10.1939 4.3933 9.82812Z" fill="#FBFBFB"/>
<path fill-rule="evenodd" clip-rule="evenodd" d="M2.47852 14.4964C2.49355 14.4285 2.50904 14.3609 2.525 14.2934H3.27981L3.61377 13.2656L3.94774 14.2934H5.02847L4.15414 14.9286L4.4881 15.9565L3.61377 15.3212L2.73945 15.9565L3.07341 14.9286L2.47852 14.4964Z" fill="#FBFBFB"/>
<path fill-rule="evenodd" clip-rule="evenodd" d="M7.4241 6.34413C7.83774 5.99574 8.27071 5.66948 8.72108 5.36719H9.4902L8.61582 6.00243L8.94978 7.03027L8.07548 6.39503L7.20117 7.03027L7.4241 6.34413Z" fill="#FBFBFB"/>
<path d="M8.07683 8.80078L8.41079 9.82861H9.49155L8.61718 10.4639L8.9512 11.4917L8.07683 10.8565L7.20252 11.4917L7.53648 10.4639L6.66211 9.82861H7.74287L8.07683 8.80078Z" fill="#FBFBFB"/>
<path d="M8.07683 13.2656L8.41079 14.2934H9.49155L8.61718 14.9286L8.9512 15.9565L8.07683 15.3212L7.20252 15.9565L7.53648 14.9286L6.66211 14.2934H7.74287L8.07683 13.2656Z" fill="#FBFBFB"/>
<path d="M12.5378 4.33984L12.8717 5.36768H13.9524L13.0781 6.00292L13.4121 7.03076L12.5378 6.39552L11.6634 7.03076L11.9974 6.00292L11.123 5.36768H12.2038L12.5378 4.33984Z" fill="#FBFBFB"/>
<path d="M12.5378 8.80078L12.8717 9.82861H13.9524L13.0781 10.4639L13.4121 11.4917L12.5378 10.8565L11.6634 11.4917L11.9974 10.4639L11.123 9.82861H12.2038L12.5378 8.80078Z" fill="#FBFBFB"/>
<path d="M12.5378 13.2656L12.8717 14.2934H13.9524L13.0781 14.9286L13.4121 15.9565L12.5378 15.3212L11.6634 15.9565L11.9974 14.9286L11.123 14.2934H12.2038L12.5378 13.2656Z" fill="#FBFBFB"/>
</g>
<defs>
<clipPath id="clip0_122_2265">
<rect width="34" height="34" fill="white" transform="translate(0 0.726562)"/>
</clipPath>
</defs>
</svg>
