<svg width="25" height="25" viewBox="0 0 25 25" fill="none" xmlns="http://www.w3.org/2000/svg">
<g clip-path="url(#clip0_122_2596)">
<path d="M14.733 10.4543L9.67305 15.5143C9.02305 14.8643 8.62305 13.9743 8.62305 12.9843C8.62305 11.0043 10.223 9.4043 12.203 9.4043C13.193 9.4043 14.083 9.8043 14.733 10.4543Z" stroke="#CBCBCB" stroke-width="1.5" stroke-linecap="round" stroke-linejoin="round"/>
<path d="M18.0229 6.75484C16.2729 5.43484 14.2729 4.71484 12.2029 4.71484C8.67297 4.71484 5.38297 6.79484 3.09297 10.3948C2.19297 11.8049 2.19297 14.1749 3.09297 15.5849C3.88297 16.8249 4.80297 17.8949 5.80297 18.7549" stroke="#CBCBCB" stroke-width="1.5" stroke-linecap="round" stroke-linejoin="round"/>
<path d="M8.62305 20.5141C9.76305 20.9941 10.973 21.2541 12.203 21.2541C15.733 21.2541 19.023 19.1741 21.313 15.5741C22.213 14.1641 22.213 11.7941 21.313 10.3841C20.983 9.86406 20.623 9.37406 20.253 8.91406" stroke="#CBCBCB" stroke-width="1.5" stroke-linecap="round" stroke-linejoin="round"/>
<path d="M15.7145 13.6836C15.4545 15.0936 14.3045 16.2436 12.8945 16.5036" stroke="#CBCBCB" stroke-width="1.5" stroke-linecap="round" stroke-linejoin="round"/>
<path d="M9.67313 15.5137L2.20312 22.9837" stroke="#CBCBCB" stroke-width="1.5" stroke-linecap="round" stroke-linejoin="round"/>
<path d="M22.2024 2.98438L14.7324 10.4544" stroke="#CBCBCB" stroke-width="1.5" stroke-linecap="round" stroke-linejoin="round"/>
</g>
<defs>
<clipPath id="clip0_122_2596">
<rect width="24" height="24" fill="white" transform="translate(0.203125 0.984375)"/>
</clipPath>
</defs>
</svg>
