<svg width="41" height="26" viewBox="0 0 41 26" fill="none" xmlns="http://www.w3.org/2000/svg">
<g clip-path="url(#clip0_122_2577)">
<g opacity="0.65">
<path d="M25.0376 18.8312C25.4876 18.7812 25.9376 18.7813 26.4376 18.7813C30.1376 18.7813 33.4376 19.6312 35.6876 20.9312" stroke="black" stroke-opacity="0.87" stroke-miterlimit="10" stroke-linecap="round"/>
<path d="M35.7375 5.5813C33.5375 6.9313 30.1875 7.7813 26.4375 7.7813C22.7375 7.7813 19.4375 6.9313 17.1875 5.6313" stroke="black" stroke-opacity="0.87" stroke-miterlimit="10"/>
<path d="M14.4375 13.2812H38.4375" stroke="black" stroke-opacity="0.87" stroke-miterlimit="10"/>
<path d="M26.4375 1.28125V25.2812" stroke="black" stroke-opacity="0.87" stroke-miterlimit="10"/>
<path d="M24.5875 25.1313C25.1875 25.2313 25.8375 25.2812 26.4375 25.2812C33.0875 25.2812 38.4375 19.9313 38.4375 13.2812C38.4375 6.63125 33.0875 1.28125 26.4375 1.28125C19.7875 1.28125 14.4375 6.63125 14.4375 13.2812C14.4375 14.2812 14.5875 15.2312 14.7875 16.1812" stroke="black" stroke-opacity="0.87" stroke-miterlimit="10" stroke-linecap="round"/>
<path d="M24.8375 24.8813C25.3375 25.1813 25.8875 25.2812 26.4375 25.2812C29.7375 25.2812 32.4375 19.9313 32.4375 13.2812C32.4375 6.63125 29.7375 1.28125 26.4375 1.28125C23.1375 1.28125 20.4375 6.63125 20.4375 13.2812C20.4375 13.9812 20.4875 14.6313 20.5375 15.2812C20.5375 15.3313 20.5375 15.3813 20.5375 15.3813" stroke="black" stroke-opacity="0.87" stroke-miterlimit="10" stroke-linecap="round"/>
</g>
<path opacity="0.8" d="M7.63762 9.73132C9.08762 8.28132 10.3376 7.33132 7.78762 4.13132C5.23762 0.931319 3.48762 3.38132 2.08762 4.83132C0.43762 6.48132 1.98762 12.5313 7.98762 18.5813C13.9876 24.6313 20.1376 26.1813 21.7376 24.5313C23.1376 23.1313 25.6376 21.3813 22.4376 18.7813C19.2376 16.1813 18.2876 17.4813 16.8376 18.9313C15.8376 19.9313 13.2376 17.8313 10.9876 15.5813C8.73762 13.3313 6.63762 10.7313 7.63762 9.73132Z" fill="black" fill-opacity="0.87"/>
</g>
<defs>
<clipPath id="clip0_122_2577">
<rect width="40" height="25" fill="white" transform="translate(0.1875 0.78125)"/>
</clipPath>
</defs>
</svg>
